<?xml version="1.0" encoding="UTF-8" standalone="no"?>
<!-- Created with Inkscape (http://www.inkscape.org/) -->

<svg
   width="297mm"
   height="210mm"
   viewBox="0 0 1122.5197 793.70081"
   version="1.1"
   id="svg5"
   inkscape:version="1.1.2 (b8e25be833, 2022-02-05)"
   sodipodi:docname="logoPortoflio.svg"
   xmlns:inkscape="http://www.inkscape.org/namespaces/inkscape"
   xmlns:sodipodi="http://sodipodi.sourceforge.net/DTD/sodipodi-0.dtd"
   xmlns="http://www.w3.org/2000/svg"
   xmlns:svg="http://www.w3.org/2000/svg">
  <sodipodi:namedview
     id="namedview7"
     pagecolor="#ffffff"
     bordercolor="#666666"
     borderopacity="1.0"
     inkscape:pageshadow="2"
     inkscape:pageopacity="0.0"
     inkscape:pagecheckerboard="0"
     inkscape:document-units="mm"
     showgrid="false"
     inkscape:zoom="0.87925607"
     inkscape:cx="561.26994"
     inkscape:cy="329.25562"
     inkscape:window-width="1920"
     inkscape:window-height="991"
     inkscape:window-x="-9"
     inkscape:window-y="-9"
     inkscape:window-maximized="1"
     inkscape:current-layer="layer1" />
  <defs
     id="defs2" />
  <g
     inkscape:label="Capa 1"
     inkscape:groupmode="layer"
     id="layer1">
    <g
       id="g4469"
       transform="matrix(1.3169427,0,0,1.1776391,-193.23417,-87.230371)">
      <path
         style="fill:#9e1eff;fill-opacity:1;stroke:none;stroke-width:1px;stroke-linecap:butt;stroke-linejoin:miter;stroke-opacity:1"
         d="M 589.47541,344.85305 V 192.02608 c -20.50922,-1e-5 -19.78651,-4.2464 -61.52773,0 -8.70291,8.58348 -0.99238,170.35906 -1.48857,255.53859 0.38165,1.22426 2.59977,0.20395 -8.43526,15.38193 -2.98727,2.92773 -10.24748,6.08176 -9.92383,6.45049 l -52.1001,-0.99238 c -15.47592,-4.90621 -14.88574,-23.321 -14.88574,-23.321 l 0.49619,-62.52012 -61.03154,-1.48857 c -3.85204,-18.2436 -6.98325,48.60435 0,83.85635 0.7075,13.17666 3.66839,22.43971 13.89336,33.24483 8.14663,10.0146 16.06159,15.84469 27.78672,22.32861 11.247,6.16407 22.49401,6.28935 33.74101,5.9543 h 20.34385 l -27.29053,72.94014 z"
         id="path54"
         sodipodi:nodetypes="ccccccccccccccccc" />
      <path
         style="fill:#9e1eff;fill-opacity:1;stroke:none;stroke-width:1px;stroke-linecap:butt;stroke-linejoin:miter;stroke-opacity:1"
         d="m 604.85735,339.39494 -3.47334,178.13272 c 1.34862,11.7644 4.18269,21.54822 13.39717,22.82481 l 57.06202,0.99238 c 10.44999,-0.69846 20.1012,-2.37323 18.85527,-17.3667 V 480.8095 c -1.23305,-3.39383 0.90362,-8.23182 -8.93145,-7.93907 l -29.27529,-0.49619 c -5.69349,0.81174 -6.8549,-3.81503 -5.9543,-10.91621 l -0.49619,-38.70293 c -3.11267,-7.65354 4.16962,-6.39713 9.92383,-6.45049 l 90.30684,-0.49619 c 6.50219,0.54012 4.64138,7.35248 6.45049,11.4124 l 0.49619,103.20782 c -1.83881,39.82847 -23.33447,55.8618 -50.11533,65.49727 l -15.38194,3.96953 -81.37539,-0.49619 c -20.32335,-5.52001 -38.96569,-12.24073 -50.11534,-24.31338"
         id="path2829"
         sodipodi:nodetypes="cccccccccccccccccc" />
      <path
         style="fill:#9e1eff;fill-opacity:1;stroke:none;stroke-width:1px;stroke-linecap:butt;stroke-linejoin:miter;stroke-opacity:1"
         d="m 556.23059,575.08587 c -6.79976,-6.60094 -13.55532,-13.31677 -13.89336,-36.71817 l -3.47334,-81.37539 65.99346,-117.59737"
         id="path2831"
         sodipodi:nodetypes="cccc" />
      <path
         style="fill:#9e1eff;fill-opacity:1;stroke:none;stroke-width:1px;stroke-linecap:butt;stroke-linejoin:miter;stroke-opacity:1"
         d="m 609.81926,328.47873 74.42873,-135.95646 -28.28292,72.94014 c 17.62261,-5.61805 20.25165,-1.86512 28.28291,-1.48857 23.56399,6.34362 38.68232,18.3177 54.58106,29.77149 17.5412,22.22041 12.81779,29.02686 14.38955,40.1915 V 370.655 c -0.12549,4.93338 -4.84093,6.80681 -12.90098,6.45049 l -37.71055,-0.49619 c -4.92807,-0.22309 -10.30949,1.06502 -11.4124,-11.9086 l -2.48096,-30.26768 c -2.87727,-12.20822 -10.19031,-11.10914 -16.8705,-11.90859 -16.13305,-3.7308 -32.56213,-6.67219 -52.5963,0 z"
         id="path2950"
         sodipodi:nodetypes="cccccccccccccc" />
    </g>
  </g>
</svg>
